<?xml version="1.0" encoding="utf-8"?>
<!-- Generator: Adobe Illustrator 16.0.0, SVG Export Plug-In . SVG Version: 6.00 Build 0)  -->
<!DOCTYPE svg PUBLIC "-//W3C//DTD SVG 1.1//EN" "http://www.w3.org/Graphics/SVG/1.1/DTD/svg11.dtd">
<svg version="1.1" id="Layer_1" xmlns="http://www.w3.org/2000/svg" xmlns:xlink="http://www.w3.org/1999/xlink" x="0px" y="0px"
	 width="457.627px" height="77.967px" viewBox="0 0 457.627 77.967" enable-background="new 0 0 457.627 77.967"
	 xml:space="preserve">
<g>
	<path fill="#FFFFFF" d="M21.456,61.415h29.697v12.314H5.399V4.769h16.056V61.415z"/>
	<path fill="#FFFFFF" d="M101.026,44.222H73.981v17.193h31.875v12.314H57.925V4.769h48.026v12.314h-31.97v14.825h27.044V44.222z"/>
	<path fill="#FFFFFF" d="M156.772,45.975H129.16v27.755h-16.056V4.769h48.5v12.314H129.16V33.66h27.613V45.975z"/>
	<path fill="#FFFFFF" d="M217.918,17.083h-18.188v56.646h-16.056V17.083h-18.045V4.769h52.289V17.083z"/>
	<path fill="#FFFFFF" d="M240.463,61.415h29.697v12.314h-45.753V4.769h16.056V61.415z"/>
	<path fill="#FFFFFF" d="M314.492,60.325h-21.74l-3.884,13.404h-16.104l22.261-68.961h17.193l22.308,68.961h-16.104L314.492,60.325z
		 M296.305,48.011h14.635l-7.199-24.676h-0.284L296.305,48.011z"/>
	<path fill="#FFFFFF" d="M396.952,73.729H380.99l-25.245-43.953l-0.284,0.095v43.858h-16.056V4.769h16.056l25.245,43.953
		l0.284-0.095V4.769h15.961V73.729z"/>
	<path fill="#FFFFFF" d="M450.898,44.222h-27.045v17.193h31.876v12.314h-47.932V4.769h48.026v12.314h-31.971v14.825h27.045V44.222z"
		/>
</g>
</svg>
